<svg width="32" height="33" viewBox="0 0 32 33" fill="none" xmlns="http://www.w3.org/2000/svg">
<path d="M2.89111 3.44775H5.18328C6.606 3.44775 7.72573 4.67287 7.60717 6.08242L6.51378 19.203C6.32935 21.3503 8.0287 23.1946 10.1891 23.1946H24.2187C26.1157 23.1946 27.7755 21.6401 27.9204 19.7563L28.6318 9.87635C28.7899 7.68957 27.13 5.91116 24.9301 5.91116H7.92334" stroke="white" stroke-width="1.976" stroke-miterlimit="10" stroke-linecap="round" stroke-linejoin="round"/>
<path d="M21.6628 29.7944C22.5722 29.7944 23.3094 29.0572 23.3094 28.1478C23.3094 27.2383 22.5722 26.5011 21.6628 26.5011C20.7534 26.5011 20.0161 27.2383 20.0161 28.1478C20.0161 29.0572 20.7534 29.7944 21.6628 29.7944Z" stroke="white" stroke-width="1.976" stroke-miterlimit="10" stroke-linecap="round" stroke-linejoin="round"/>
<path d="M11.1242 29.7944C12.0336 29.7944 12.7709 29.0572 12.7709 28.1478C12.7709 27.2383 12.0336 26.5011 11.1242 26.5011C10.2148 26.5011 9.47754 27.2383 9.47754 28.1478C9.47754 29.0572 10.2148 29.7944 11.1242 29.7944Z" stroke="white" stroke-width="1.976" stroke-miterlimit="10" stroke-linecap="round" stroke-linejoin="round"/>
<path d="M12.1123 11.3518H27.9203" stroke="white" stroke-width="1.976" stroke-miterlimit="10" stroke-linecap="round" stroke-linejoin="round"/>
</svg>
