<svg width="17" height="17" viewBox="0 0 17 17" fill="none" xmlns="http://www.w3.org/2000/svg">
<path d="M2.12537 2.27173H3.28537C4.00537 2.27173 4.57203 2.89173 4.51203 3.60506L3.9587 10.2451C3.86537 11.3317 4.72536 12.2651 5.81869 12.2651H12.9187C13.8787 12.2651 14.7187 11.4784 14.792 10.5251L15.152 5.52507C15.232 4.4184 14.392 3.51839 13.2787 3.51839H4.67204" stroke="white" stroke-width="0.992" stroke-miterlimit="10" stroke-linecap="round" stroke-linejoin="round"/>
<path d="M11.6253 15.605C12.0856 15.605 12.4587 15.2319 12.4587 14.7717C12.4587 14.3115 12.0856 13.9384 11.6253 13.9384C11.1651 13.9384 10.792 14.3115 10.792 14.7717C10.792 15.2319 11.1651 15.605 11.6253 15.605Z" stroke="white" stroke-width="0.992" stroke-miterlimit="10" stroke-linecap="round" stroke-linejoin="round"/>
<path d="M6.29195 15.605C6.75219 15.605 7.12528 15.2319 7.12528 14.7717C7.12528 14.3115 6.75219 13.9384 6.29195 13.9384C5.83171 13.9384 5.45862 14.3115 5.45862 14.7717C5.45862 15.2319 5.83171 15.605 6.29195 15.605Z" stroke="white" stroke-width="0.992" stroke-miterlimit="10" stroke-linecap="round" stroke-linejoin="round"/>
<path d="M6.79199 6.27173H14.792" stroke="white" stroke-width="0.992" stroke-miterlimit="10" stroke-linecap="round" stroke-linejoin="round"/>
</svg>
